<svg width="56" height="40" viewBox="0 0 56 40" fill="none" xmlns="http://www.w3.org/2000/svg">
<path fill-rule="evenodd" clip-rule="evenodd" d="M41.4199 10.575V18.8098C46.8277 16.5763 51.6062 13.0583 55.3394 8.56206C52.343 10.7773 49.0902 12.6247 45.6511 14.0643V6.66719C45.6511 4.89892 44.9468 3.20308 43.6932 1.95273C42.4395 0.702377 40.7393 -6.48499e-05 38.9664 -6.48499e-05C37.1935 -6.48499e-05 35.4932 0.702377 34.2396 1.95273C32.9859 3.20308 32.2817 4.89892 32.2817 6.66719V17.442C29.2145 17.7463 26.1247 17.7463 23.0575 17.442L23.0575 6.66703C23.0488 4.90445 22.3407 3.21703 21.088 1.97376C19.8354 0.730492 18.14 0.0325508 16.3728 0.0325508C14.6056 0.0325508 12.9103 0.730492 11.6576 1.97376C10.405 3.21703 9.69684 4.90445 9.68813 6.66703L9.68813 14.0643C6.24918 12.6243 2.99639 10.777 -0.000152588 8.56206C3.73332 13.0581 8.51186 16.5761 13.9196 18.8098L13.9196 6.44405C13.9196 5.79497 14.1782 5.17248 14.6383 4.71351C15.0985 4.25454 15.7226 3.99669 16.3734 3.99669C17.0242 3.99669 17.6483 4.25454 18.1085 4.71351C18.5686 5.17248 18.8272 5.79497 18.8272 6.44405L18.8272 20.4371C24.6302 21.9063 30.7092 21.9063 36.5122 20.4371V6.44405C36.5122 5.79493 36.7707 5.17239 37.2309 4.71339C37.6911 4.25439 38.3153 3.99653 38.9661 3.99653C39.617 3.99653 40.2411 4.25439 40.7013 4.71339C41.1615 5.17239 41.4201 5.79493 41.4201 6.44405L41.4199 10.575ZM41.4199 20.7723V32.4924C41.4199 33.1415 41.1614 33.7641 40.7012 34.2231C40.241 34.6821 39.6168 34.9399 38.966 34.9399C38.3151 34.9399 37.691 34.6821 37.2308 34.2231C36.7706 33.7641 36.512 33.1415 36.512 32.4924V22.3994C35.1193 22.752 33.7067 23.0209 32.2817 23.2046V32.4924C32.2817 34.2607 32.9859 35.9565 34.2396 37.2069C35.4932 38.4572 37.1935 39.1597 38.9664 39.1597C40.7393 39.1597 42.4395 38.4572 43.6932 37.2069C44.9468 35.9565 45.6511 34.2607 45.6511 32.4924V18.6899C44.2878 19.4755 42.8744 20.1711 41.4199 20.7723ZM9.68813 18.6899V32.4924C9.69684 34.255 10.405 35.9424 11.6576 37.1857C12.9103 38.4289 14.6056 39.1269 16.3728 39.1269C18.14 39.1269 19.8354 38.4289 21.088 37.1857C22.3407 35.9424 23.0488 34.255 23.0575 32.4924V23.2045C21.6325 23.0207 20.2199 22.7518 18.8272 22.3992V32.4924C18.8272 33.1415 18.5686 33.764 18.1085 34.223C17.6483 34.6819 17.0242 34.9398 16.3734 34.9398C15.7226 34.9398 15.0985 34.6819 14.6383 34.223C14.1782 33.764 13.9196 33.1415 13.9196 32.4924V20.7723C12.465 20.1713 11.0514 19.4757 9.68813 18.6899Z" fill="url(#paint0_linear_737_1458)"/>
<defs>
<linearGradient id="paint0_linear_737_1458" x1="27.6696" y1="39.1597" x2="27.6696" y2="-6.48499e-05" gradientUnits="userSpaceOnUse">
<stop stop-color="#883BFF"/>
<stop offset="1" stop-color="#883BFF"/>
</linearGradient>
</defs>
</svg>
